<svg xmlns="http://www.w3.org/2000/svg" width="186.861" height="110.966"><circle fill="#375180" cx="70.704" cy="105.783" r="5.182"/><circle fill="#375180" cx="5.183" cy="78.269" r="5.183"/><circle fill="#375180" cx="121.8" cy="63.519" r="2.848"/><circle fill="#375180" cx="48.859" cy="49.678" r="2.848"/><circle fill="#375180" cx="33.16" cy="17.826" r="2.848"/><circle fill="#375180" cx="87.597" cy="7.948" r="2.848"/><path fill="none" stroke="#375180" stroke-width=".75" stroke-miterlimit="10" d="M5.183 78.269l65.521 27.513 51.097-42.263z"/><path fill="none" stroke="#375180" stroke-width=".75" stroke-miterlimit="10" d="M33.16 17.825L5.183 78.269l65.521 27.513L88.01 7.825zm15.699 31.852l72.942 13.842"/><circle fill="#375180" cx="181.678" cy="93.211" r="5.182"/><circle fill="#375180" cx="136.611" cy="5.184" r="5.183"/><circle fill="#375180" cx="176.274" cy="27.121" r="2.848"/><circle fill="#375180" cx="123.17" cy="79.005" r="2.848"/><circle fill="#375180" cx="88.066" cy="73.644" r="2.848"/><circle fill="#375180" cx="111.13" cy="23.354" r="2.848"/><path fill="none" stroke="#375180" stroke-width=".75" stroke-miterlimit="10" d="M123.17 79.005l58.508 14.205-5.404-66.09z"/><path fill="none" stroke="#375180" stroke-width=".75" stroke-miterlimit="10" d="M88.065 73.644l48.546-68.461 45.067 88.027-70.413-70.265zm35.104 5.36l53.105-51.884"/></svg>